<svg width="219" height="72" viewBox="0 0 219 72" fill="none" xmlns="http://www.w3.org/2000/svg">
<path fill-rule="evenodd" clip-rule="evenodd" d="M32.9697 0.00267264C35.2261 -0.0190957 36.6063 0.089746 38.2274 0.416271C39.4322 0.655722 40.7686 0.960479 41.1848 1.09109C41.601 1.2217 42.6964 1.6353 43.6164 1.98359C44.668 2.39719 45.2594 2.74548 45.2594 2.96317C45.2375 3.24615 44.7118 3.31146 42.0611 3.37676C40.2428 3.4203 37.7673 3.63798 36.2558 3.8992C34.8099 4.13865 32.4878 4.68286 31.1077 5.11823C29.7275 5.53183 27.4054 6.46787 25.9596 7.16445C24.5137 7.86104 22.6297 8.88415 21.7973 9.45013C20.9648 10.0161 19.5847 11.0392 18.7522 11.714C17.9198 12.3889 16.1891 14.0215 14.9185 15.3493C13.6479 16.6772 11.983 18.6364 11.2163 19.703C10.4495 20.7697 9.31039 22.6635 8.65319 23.9261C8.01789 25.1886 7.14162 27.2566 6.70348 28.5627C6.26534 29.847 5.67386 32.0892 5.36717 33.5694C5.01666 35.2021 4.75378 37.3354 4.68806 39.1639C4.57852 41.319 4.64424 42.6468 4.90712 44.1706C5.08238 45.3026 5.49861 47.0223 5.8053 47.9801C6.1339 48.9379 6.79111 50.5052 7.27306 51.463C7.75501 52.4208 8.71891 53.9228 9.39802 54.8153C10.0771 55.7078 11.2163 56.9486 11.9392 57.5581C12.6621 58.1894 13.8451 59.0819 14.568 59.5826C15.2909 60.0615 16.912 60.954 18.1826 61.5635C19.4532 62.173 21.7096 63.0655 23.2212 63.5444C24.7328 64.0233 27.1425 64.6764 28.5884 64.9811C30.5819 65.3947 32.1373 65.5689 35.0509 65.6559C37.4606 65.7212 39.6294 65.6777 40.8562 65.5253C41.9296 65.373 43.9669 65.0029 45.3471 64.6981C46.7272 64.3934 49.0055 63.7839 50.3856 63.3267C52.2039 62.7172 52.9487 62.5648 53.0583 62.739C53.1459 62.8914 53.2335 63.0655 53.2335 63.1744C53.2335 63.2614 52.5763 63.8927 51.7439 64.5675C50.9333 65.2423 49.4436 66.3308 48.414 67.0056C47.3844 67.6586 45.6538 68.5947 44.5803 69.0518C43.5069 69.5307 41.4696 70.2055 40.0894 70.5756C37.6578 71.2286 37.4168 71.2504 32.8602 71.2504C28.5884 71.2722 27.975 71.2286 26.1786 70.7497C25.0833 70.4667 23.3746 69.9008 22.3449 69.5089C21.3153 69.0953 19.8914 68.3988 19.1684 67.9634C18.4455 67.528 17.0654 66.5702 16.1015 65.8301C15.1376 65.09 13.626 63.6968 12.7278 62.7608C11.8516 61.8247 10.4495 60.1486 9.6609 59.0819C8.85035 58.0153 7.68929 56.3391 7.0759 55.3813C6.46251 54.4235 5.41098 52.5079 4.70996 51.1365C4.00894 49.7651 3.11077 47.7406 2.69454 46.674C2.27831 45.6073 1.66492 43.6482 1.31441 42.3203C0.963899 40.9924 0.525763 38.9897 0.328602 37.8578C0.153348 36.7258 0 34.8755 0 33.7653C0 32.6769 0.153348 30.7613 0.328602 29.5423C0.525763 28.3015 0.854365 26.56 1.07343 25.6675C1.31441 24.775 1.86208 23.0553 2.30021 21.8581C2.76026 20.6608 3.37365 19.2023 3.68034 18.5928C3.98704 18.0051 4.70996 16.7207 5.32335 15.7629C5.91484 14.8051 6.85683 13.4337 7.4045 12.7154C7.95217 11.997 9.06942 10.7345 9.85806 9.90726C10.6467 9.10183 12.0706 7.79573 13.0345 7.05561C13.9984 6.31549 15.4881 5.27061 16.3206 4.76994C17.153 4.2475 18.6427 3.46384 19.6066 3.02847C20.5705 2.5931 22.1916 1.94005 23.2212 1.61353C24.2508 1.26524 26.1786 0.786332 27.493 0.503344C29.2675 0.155051 30.7133 0.024441 32.9697 0.00267264ZM153.654 61.1499H154.377C154.772 61.1499 155.1 61.2587 155.1 61.3676C155.1 61.4982 154.333 63.6097 153.413 66.0913C152.208 69.2695 151.507 70.815 151.047 71.3157C150.478 71.947 150.281 72.0341 149.404 71.9905C148.594 71.9252 148.419 71.8599 148.419 71.4899C148.419 71.1416 148.594 71.0327 149.295 70.9456C150.04 70.8586 150.237 70.7062 150.653 69.9661C150.916 69.4872 151.705 67.3103 152.384 65.1335L153.654 61.1499ZM90.3655 2.68018C91.7019 2.72371 93.3449 2.91963 94.0459 3.11554C94.7469 3.31146 95.6451 3.59445 96.828 4.11689L96.3023 5.35768C96.0175 6.05427 95.7327 6.57671 95.6451 6.55494C95.5794 6.53317 94.8126 6.27195 93.9363 6.01073C92.6877 5.64067 91.8114 5.53183 89.9274 5.53183C87.5834 5.53183 87.4519 5.5536 85.8746 6.31549C84.7355 6.85969 83.9249 7.46921 83.1801 8.27464C82.6105 8.90592 81.8876 9.92903 81.6028 10.5385C81.3399 11.1263 80.9894 12.1059 80.858 12.7154C80.7047 13.3031 80.5951 14.631 80.5951 15.6541C80.5951 16.6554 80.7047 17.9833 80.858 18.5928C80.9894 19.1806 81.3399 20.1601 81.6028 20.7697C81.8876 21.3574 82.6105 22.3805 83.1801 23.0118C83.903 23.7955 84.7355 24.4267 85.7651 24.9274C86.9919 25.5369 87.671 25.7111 89.0511 25.7981C90.0369 25.8634 91.3733 25.8199 93.323 25.4498L93.4325 16.6337L97.0471 16.5248V26.9736L96.2366 27.3655C95.7765 27.6049 94.8126 27.9532 94.0897 28.1491C93.3668 28.345 91.7457 28.5627 90.4751 28.628C88.8102 28.7151 87.7367 28.6498 86.5319 28.4103C85.6337 28.2144 84.1659 27.692 83.2458 27.2348C82.3258 26.7777 81.0332 25.907 80.2884 25.2104C79.3683 24.3614 78.6892 23.4472 78.032 22.1628C77.4844 21.1397 76.9367 19.6812 76.7614 18.9193C76.6081 18.1357 76.4766 16.6554 76.4766 15.6541C76.4766 14.631 76.63 13.1507 76.8052 12.3889C77.0024 11.6052 77.572 10.1902 78.0758 9.23244C78.733 7.99165 79.4121 7.12091 80.5075 6.0978C81.4714 5.2053 82.6324 4.39987 83.5744 3.96451C84.4288 3.55091 85.7651 3.09377 86.5319 2.91963C87.5177 2.68018 88.7225 2.61487 90.3655 2.68018ZM180.249 2.61487C181.366 2.5931 182.944 2.72371 183.754 2.89786C184.565 3.09377 185.813 3.57268 186.536 4.00804C187.259 4.42164 188.136 5.07469 188.486 5.46652C188.837 5.85835 189.34 6.66378 189.625 7.27329C190.041 8.12226 190.151 8.71 190.151 10.1032C190.151 11.4528 190.041 12.0623 189.647 12.9331C189.362 13.5208 188.683 14.4351 188.114 14.9357C187.544 15.4364 186.799 16.0024 185.77 16.5248L186.69 17.3303C187.194 17.7874 187.917 18.7887 188.289 19.5724C188.683 20.3343 189.275 21.9669 189.603 23.1642C189.91 24.3614 190.37 25.8634 190.611 26.5383C190.83 27.1913 191.027 27.8444 191.027 27.9967C191.027 28.1927 190.523 28.2797 189.165 28.2797C187.632 28.2797 187.281 28.2144 187.106 27.8879C186.996 27.6702 186.514 26.0594 186.011 24.2961C185.529 22.5329 184.893 20.6173 184.609 20.0513C184.324 19.4853 183.776 18.7017 183.404 18.3098C182.856 17.7656 182.527 17.5915 181.892 17.5915C181.432 17.5915 180.556 17.5262 179.921 17.4391C179.11 17.3303 178.759 17.1779 178.781 16.9602C178.781 16.7643 179.154 16.2636 179.592 15.8282C180.052 15.3929 180.665 14.9793 180.95 14.914C181.257 14.8487 181.848 14.7398 182.265 14.6745C182.703 14.631 183.535 14.2392 184.127 13.8473C184.828 13.3902 185.397 12.8024 185.726 12.1712C186.054 11.5399 186.23 10.8215 186.23 10.1467C186.23 9.58074 186.033 8.75354 185.813 8.2964C185.572 7.83927 185.047 7.16445 184.609 6.77262C184.17 6.38079 183.294 5.92366 182.659 5.72774C182.024 5.5536 181.016 5.40122 180.402 5.40122C179.811 5.40122 178.847 5.48829 177.226 5.74951V28.2797H173.502L173.458 3.28969L175.517 3.02847C176.635 2.87609 177.708 2.74548 177.883 2.70194C178.08 2.65841 179.132 2.61487 180.249 2.61487ZM115.076 3.13731L119.436 15.2187C121.846 21.8581 123.839 27.5178 123.905 27.7791C123.992 28.258 123.971 28.2797 120.049 28.2797L119.83 27.5614C119.699 27.1695 118.253 22.99 116.632 18.2663C114.989 13.5208 113.565 9.29775 113.455 8.84061C113.368 8.38348 113.171 8.03518 113.039 8.03518C112.93 8.03518 111.966 10.5385 110.914 13.6079C109.863 16.699 108.964 19.2894 108.943 19.3765C108.921 19.4853 110.016 19.5724 111.396 19.5724C113.214 19.5724 114.113 19.6595 114.573 19.8989C114.945 20.0731 115.427 20.4867 115.646 20.8132C115.865 21.1397 116.128 21.6404 116.325 22.4023L107.935 22.5111L106.029 28.2797H104.167C103.071 28.2797 102.305 28.1709 102.305 28.062C102.305 27.9314 104.233 22.5111 106.577 16.0242C108.899 9.5372 110.936 3.94274 111.067 3.61621C111.308 3.0067 111.308 3.0067 115.076 3.13731ZM131.003 3.02847H134.727V25.4498H145.023V28.2797H131.003V3.02847ZM149.185 3.02847H167.368V5.85835H160.358V28.2797H156.415V5.85835H149.185V3.02847ZM210.152 3.13731L214.511 15.2187C216.921 21.8581 218.915 27.5178 218.98 27.7791C219.068 28.258 219.024 28.2797 215.234 28.2797L214.862 27.3437C214.665 26.843 213.175 22.5547 211.554 17.8309C209.933 13.0854 208.553 8.94945 208.465 8.62293C208.399 8.2964 208.246 8.03518 208.115 8.03518C208.005 8.03518 207.041 10.5385 205.99 13.6079C204.938 16.699 204.04 19.2894 204.018 19.3765C203.996 19.4853 205.091 19.5724 206.472 19.5724C208.29 19.5724 209.188 19.6595 209.648 19.8989C210.02 20.0731 210.502 20.4867 210.722 20.8132C210.962 21.1397 211.182 21.6186 211.225 21.8581C211.291 22.2717 211.16 22.2934 203.01 22.5111L201.104 28.2797H199.242C198.147 28.2797 197.38 28.1709 197.38 28.062C197.38 27.9314 199.308 22.5111 201.652 16.0242C203.974 9.5372 206.012 3.94274 206.143 3.61621C206.384 3.0067 206.384 3.0067 210.152 3.13731ZM54.767 30.6742V43.8441C54.767 54.2276 54.7232 56.9921 54.5041 56.9921C54.3508 56.9921 53.584 55.6425 52.7735 54.0099C51.9848 52.3555 50.7142 50.0916 49.9475 48.9596C49.2027 47.8059 47.9102 46.0427 47.0996 45.0413C46.2891 44.0182 44.4489 42.0373 43.025 40.6659C41.601 39.2727 39.6951 37.5966 38.775 36.9218C37.8769 36.2469 36.2996 35.1803 35.2699 34.549C34.2403 33.896 32.2468 32.8511 30.8448 32.198C29.4427 31.5232 28.2817 30.9137 28.2817 30.8266C28.2817 30.7395 34.2403 30.6742 54.767 30.6742ZM210.962 37.4224H212.496V42.1461C212.496 44.7584 212.584 47.1964 212.671 47.5882C212.825 48.2631 212.803 48.3066 212.233 48.3066C211.883 48.3066 211.51 48.1107 211.357 47.893C211.094 47.4794 211.072 47.4794 210.459 47.9365C210.02 48.2631 209.517 48.4154 208.772 48.4154C207.874 48.4154 207.589 48.3066 206.997 47.7188C206.581 47.327 206.143 46.6522 205.99 46.1951C205.836 45.7379 205.727 44.976 205.727 44.4971C205.705 43.9312 205.924 43.2781 206.274 42.6904C206.581 42.1679 207.041 41.5584 207.304 41.319C207.589 41.0577 208.224 40.8183 208.772 40.753C209.319 40.7094 209.911 40.753 210.086 40.8836C210.371 41.0795 210.371 41.1666 209.977 41.4496C209.736 41.6237 209.341 41.7761 209.1 41.7543C208.859 41.7543 208.443 41.9502 208.18 42.1897C207.917 42.4291 207.589 43.0387 207.457 43.5176C207.348 43.9965 207.326 44.8019 207.414 45.3026C207.479 45.8032 207.786 46.4998 208.071 46.8263C208.377 47.1964 208.794 47.4359 209.166 47.4359C209.495 47.4359 210.042 47.2399 210.962 46.5651V37.4224ZM86.4223 37.7272C87.2767 37.7707 88.3501 37.9666 88.8321 38.1625C89.314 38.3585 89.9931 38.7938 90.3436 39.1204C90.6941 39.4251 91.1542 40.0999 91.3952 40.5788C91.6581 41.123 91.7895 41.9285 91.7895 42.8645C91.7895 43.6264 91.68 44.6713 91.5266 45.1502C91.3733 45.6291 90.8256 46.4563 90.2779 47.0223C89.6426 47.6753 88.9635 48.1107 88.3939 48.2631C87.912 48.3937 87.2329 48.5025 86.8605 48.5025C86.5099 48.5025 85.9842 48.4372 85.7213 48.3501C85.2613 48.1977 85.2613 48.176 85.6118 47.8059C85.8527 47.5447 86.3128 47.4141 86.8605 47.4141C87.3643 47.4141 88.0434 47.2399 88.4597 46.9787C88.854 46.7393 89.3797 46.1298 89.6426 45.6291C89.8836 45.1284 90.1465 44.2141 90.2122 43.6264C90.256 43.0169 90.2122 42.1026 90.0808 41.6019C89.9274 41.1013 89.555 40.3611 89.2264 39.9911C88.8978 39.5993 88.3063 39.1639 87.912 39.0115C87.5177 38.8374 86.5976 38.7285 84.5602 38.7285V48.3066H83.0268L83.1363 37.9666L84.0126 37.8143C84.4945 37.7272 85.5899 37.7054 86.4223 37.7272ZM127.826 37.6619C128.199 37.6401 128.878 37.7272 129.36 37.8578C129.842 37.9666 130.28 38.0972 130.302 38.119C130.345 38.1408 130.302 38.3149 130.236 38.5108C130.148 38.7503 129.754 38.8374 128.571 38.8374C127.169 38.8374 126.972 38.8809 126.577 39.3816C126.271 39.7516 126.183 40.0999 126.271 40.5135C126.358 40.9199 126.731 41.319 127.388 41.7108C127.936 42.0373 128.768 42.5597 129.272 42.8645C129.776 43.1475 130.389 43.6917 130.63 44.0618C130.915 44.4536 131.112 45.0631 131.112 45.6073C131.112 46.2168 130.959 46.7393 130.674 47.1311C130.411 47.4794 129.929 47.893 129.579 48.0889C129.162 48.2848 128.396 48.3937 127.388 48.3719C126.556 48.3501 125.592 48.2413 125.263 48.1107C124.781 47.9148 124.693 47.7624 124.825 47.4141C124.956 47.0658 125.11 47.0005 125.416 47.1093C125.657 47.1746 126.402 47.3052 127.059 47.3705C128.199 47.5012 128.308 47.4576 128.987 46.8046C129.382 46.4345 129.71 45.9556 129.71 45.7379C129.71 45.5202 129.535 45.1066 129.294 44.8237C129.075 44.5189 128.308 43.9529 127.585 43.5829C126.884 43.2128 126.008 42.6251 125.635 42.2768C125.285 41.9285 124.913 41.3407 124.825 40.9924C124.759 40.6441 124.781 39.9911 124.891 39.534C125.022 39.0333 125.329 38.5544 125.701 38.3149C126.03 38.0755 126.49 37.8578 126.731 37.7925C126.972 37.7272 127.476 37.6619 127.826 37.6619ZM142.46 37.6401C142.548 37.6401 142.81 37.7272 143.051 37.8578C143.314 37.9666 143.511 38.2932 143.511 38.5544C143.511 38.8156 143.38 39.1639 143.249 39.3163C143.095 39.4686 142.789 39.5993 142.569 39.5993C142.372 39.5993 142.044 39.4469 141.847 39.2727C141.649 39.055 141.584 38.7503 141.671 38.4455C141.737 38.1843 141.912 37.8796 142.044 37.7925C142.175 37.7054 142.372 37.6401 142.46 37.6401ZM105.043 38.5544L105.153 42.4944C105.218 44.6713 105.35 46.6087 105.437 46.8263C105.525 47.044 105.876 47.2617 106.204 47.3488C106.533 47.4141 106.971 47.4141 107.19 47.3488C107.431 47.2617 107.606 47.327 107.672 47.5447C107.738 47.7188 107.781 47.9583 107.781 48.0889C107.781 48.1977 107.365 48.3501 106.861 48.4154C106.358 48.4807 105.656 48.4372 105.328 48.3066C104.999 48.176 104.539 47.7624 104.298 47.3705C103.926 46.7828 103.86 46.2821 103.838 41.9938H103.181C102.721 41.9938 102.524 41.8849 102.524 41.6019C102.524 41.3625 102.765 41.1666 103.181 41.0577C103.816 40.9054 103.838 40.84 103.794 39.9258C103.773 39.055 103.816 38.9462 104.408 38.7503L105.043 38.5544ZM97.3319 40.8183C97.9015 40.8618 98.5806 41.0577 98.8654 41.2101C99.1283 41.3843 99.4788 41.7979 99.6102 42.1461C99.7417 42.4727 99.9169 44.0182 100.005 45.542C100.114 48.3066 100.114 48.3066 99.6321 48.3284C99.3473 48.3284 99.0187 48.176 98.8654 48.0018C98.6244 47.6971 98.493 47.6971 97.77 48.0889C97.31 48.3284 96.7404 48.5243 96.4995 48.5243C96.2585 48.5243 95.7546 48.4372 95.3603 48.3066C94.9222 48.176 94.5278 47.8495 94.3088 47.4359C94.1335 47.0876 93.9802 46.5434 93.9802 46.2386C93.9802 45.9338 94.1992 45.4549 94.484 45.1502C94.8126 44.7584 95.4041 44.4754 96.2804 44.2794C97.0033 44.1271 97.6824 44.0182 97.77 44.0835C97.8577 44.1271 97.8358 44.3448 97.7481 44.5624C97.6386 44.7584 97.2443 45.0196 96.8719 45.1066C96.4775 45.1937 96.0394 45.4114 95.8422 45.5855C95.667 45.7597 95.5136 46.108 95.5136 46.3474C95.5136 46.5869 95.667 46.9352 95.8422 47.1093C96.0394 47.2835 96.4337 47.4359 96.7185 47.4359C97.0252 47.4359 97.5729 47.1964 97.9234 46.8916C98.5368 46.391 98.5806 46.2386 98.5806 44.9325C98.5806 44.1488 98.4492 43.1693 98.252 42.7557C98.0767 42.3203 97.7262 41.9502 97.4414 41.8632C97.1567 41.7979 96.4995 41.7761 95.9518 41.8196C95.0974 41.8849 94.966 41.8414 94.966 41.4496C94.966 41.1448 95.1631 40.9707 95.6232 40.8618C95.9956 40.7965 96.7623 40.753 97.3319 40.8183ZM113.762 40.8183C114.332 40.8618 115.011 41.0577 115.295 41.2101C115.558 41.3843 115.909 41.7979 116.04 42.1461C116.172 42.4727 116.347 44.0182 116.435 45.542C116.544 48.3066 116.544 48.3066 116.062 48.3284C115.777 48.3284 115.449 48.176 115.295 48.0018C115.055 47.6971 114.923 47.6971 114.2 48.0889C113.74 48.3284 113.171 48.5243 112.93 48.5243C112.689 48.5243 112.185 48.4372 111.79 48.3066C111.352 48.176 110.958 47.8495 110.739 47.4359C110.564 47.0876 110.41 46.5434 110.41 46.2386C110.41 45.9338 110.629 45.4549 110.914 45.1502C111.243 44.7584 111.834 44.4754 112.71 44.2794C113.433 44.1271 114.113 44.0182 114.2 44.0835C114.288 44.1271 114.266 44.3448 114.178 44.5624C114.069 44.7584 113.674 45.0196 113.302 45.1066C112.908 45.1937 112.47 45.4114 112.272 45.5855C112.097 45.7597 111.944 46.108 111.944 46.3474C111.944 46.5869 112.097 46.9352 112.272 47.1093C112.47 47.2835 112.864 47.4359 113.149 47.4359C113.455 47.4359 114.003 47.1964 114.353 46.8916C114.967 46.391 115.011 46.2386 115.011 44.9325C115.011 44.1488 114.879 43.1693 114.682 42.7557C114.507 42.3203 114.156 41.9502 113.872 41.8632C113.587 41.7979 112.93 41.7761 112.382 41.8196C111.528 41.8849 111.396 41.8414 111.396 41.4496C111.396 41.1448 111.593 40.9707 112.053 40.8618C112.426 40.7965 113.192 40.753 113.762 40.8183ZM137.356 40.7094C137.662 40.7094 138.144 40.753 138.407 40.84C138.758 40.9271 138.889 41.1013 138.845 41.4278C138.801 41.8196 138.67 41.8632 137.903 41.7979C137.421 41.7761 136.808 41.8414 136.545 41.972C136.26 42.1026 135.91 42.5162 135.713 42.8645C135.537 43.2346 135.384 44.0182 135.384 44.606C135.384 45.2155 135.537 45.9991 135.713 46.3474C135.91 46.7175 136.26 47.1093 136.545 47.2399C136.808 47.3706 137.487 47.4576 138.013 47.4141C138.867 47.3488 138.999 47.3923 138.999 47.7624C138.999 48.0236 138.78 48.2413 138.385 48.3501C138.035 48.459 137.356 48.4807 136.852 48.4154C136.348 48.3501 135.669 48.1107 135.34 47.9148C135.012 47.7188 134.552 47.1964 134.311 46.7828C134.018 46.2749 133.872 45.6073 133.872 44.7801C133.851 44.0835 133.982 43.2128 134.157 42.821C134.333 42.4291 134.683 41.8849 134.99 41.6237C135.274 41.3407 135.8 41.036 136.151 40.9271C136.523 40.8183 137.071 40.7312 137.356 40.7094ZM150.39 40.7965C150.872 40.8618 151.486 41.0577 151.77 41.2319C152.033 41.406 152.406 41.9285 152.603 42.3856C152.822 42.8863 152.909 43.474 152.69 44.606L150.894 44.6277C149.886 44.6277 149.01 44.5407 148.922 44.4536C148.835 44.3665 148.879 44.1488 149.032 43.9965C149.185 43.8441 149.755 43.7352 150.346 43.7352C151.266 43.7352 151.376 43.6917 151.376 43.2563C151.376 42.9951 151.135 42.5597 150.872 42.2768C150.587 41.972 150.149 41.7761 149.777 41.7761C149.426 41.7761 148.988 41.9938 148.747 42.2768C148.506 42.538 148.221 43.1693 148.09 43.6917C147.959 44.3012 147.959 44.9107 148.09 45.4767C148.221 45.9556 148.594 46.6087 148.922 46.9134C149.426 47.3923 149.667 47.4576 150.5 47.3705C151.047 47.3052 151.683 47.2399 151.924 47.1964C152.252 47.1311 152.384 47.2399 152.428 47.61C152.471 48.0236 152.34 48.1324 151.332 48.3501C150.697 48.4807 149.799 48.5243 149.361 48.459C148.901 48.3719 148.221 48.0454 147.849 47.7188C147.455 47.3923 147.017 46.8046 146.863 46.4127C146.688 46.0209 146.556 45.1502 146.556 44.4971C146.556 43.757 146.71 42.9951 146.973 42.4944C147.214 42.0373 147.63 41.5366 147.915 41.3625C148.199 41.1883 148.681 40.9707 148.966 40.8836C149.273 40.7965 149.908 40.753 150.39 40.7965ZM160.139 40.7094C160.445 40.7094 160.949 40.8183 161.234 40.9707C161.541 41.123 161.913 41.5802 162.045 41.9938C162.198 42.4291 162.307 43.9965 162.329 48.3066H160.796V45.4767C160.796 43.9312 160.708 42.4509 160.577 42.2115C160.402 41.8632 160.139 41.7761 159.262 41.7761C158.474 41.7761 158.167 41.689 158.123 41.4713C158.101 41.2537 158.364 41.0577 158.846 40.9271C159.262 40.8183 159.854 40.7312 160.139 40.7094ZM168.901 40.7094C169.208 40.7094 169.69 40.753 169.953 40.84C170.303 40.9271 170.435 41.1013 170.391 41.4278C170.347 41.8196 170.216 41.8632 169.449 41.7979C168.967 41.7761 168.354 41.8414 168.091 41.972C167.806 42.1026 167.456 42.5162 167.258 42.8645C167.083 43.2346 166.93 44.0182 166.93 44.606C166.93 45.2155 167.083 45.9991 167.258 46.3474C167.456 46.7175 167.806 47.1093 168.091 47.2399C168.354 47.3706 169.033 47.4576 169.559 47.4141C170.413 47.3488 170.544 47.3923 170.544 47.7624C170.544 48.0236 170.325 48.2413 169.931 48.3501C169.581 48.459 168.901 48.4807 168.398 48.4154C167.894 48.3501 167.215 48.1107 166.886 47.9148C166.557 47.7188 166.097 47.1964 165.856 46.7828C165.564 46.2749 165.418 45.6073 165.418 44.7801C165.396 44.0835 165.528 43.2128 165.703 42.821C165.878 42.4291 166.229 41.8849 166.535 41.6237C166.82 41.3407 167.346 41.036 167.697 40.9271C168.069 40.8183 168.617 40.7312 168.901 40.7094ZM176.897 40.7965C177.379 40.8618 178.037 41.0795 178.321 41.2972C178.628 41.5366 179 42.1026 179.154 42.5597C179.307 43.0387 179.395 43.6917 179.329 44.0182C179.198 44.606 179.198 44.606 177.401 44.6277C176.394 44.6277 175.517 44.5407 175.43 44.4536C175.342 44.3665 175.386 44.1488 175.539 43.9965C175.693 43.8441 176.262 43.7352 176.854 43.7352C177.774 43.7352 177.883 43.6917 177.883 43.2563C177.883 42.9951 177.642 42.5597 177.379 42.2768C177.095 41.972 176.656 41.7761 176.306 41.7761C175.912 41.7761 175.517 41.9938 175.189 42.3856C174.926 42.7121 174.619 43.3434 174.531 43.8005C174.444 44.2359 174.488 44.9978 174.597 45.4767C174.729 45.9556 175.101 46.6087 175.43 46.9134C175.934 47.3923 176.174 47.4576 177.007 47.3705C177.555 47.3052 178.19 47.2399 178.431 47.1964C178.759 47.1311 178.891 47.2399 178.935 47.61C178.979 48.0236 178.847 48.1324 177.839 48.3501C177.204 48.4807 176.306 48.5243 175.868 48.459C175.408 48.3719 174.729 48.0454 174.356 47.7188C173.962 47.3923 173.524 46.8046 173.37 46.4127C173.195 46.0209 173.064 45.1502 173.064 44.4971C173.064 43.757 173.217 42.9951 173.48 42.4944C173.721 42.0373 174.137 41.5366 174.422 41.3625C174.707 41.1883 175.189 40.9707 175.473 40.8836C175.78 40.7965 176.415 40.753 176.897 40.7965ZM190.217 40.8183C190.786 40.8618 191.465 41.0577 191.75 41.2101C192.013 41.3843 192.364 41.7979 192.495 42.1461C192.626 42.4727 192.802 44.0182 192.889 45.542C192.999 48.3066 192.999 48.3066 192.517 48.3284C192.232 48.3284 191.904 48.176 191.75 48.0018C191.509 47.6971 191.378 47.6971 190.655 48.0889C190.195 48.3284 189.625 48.5243 189.384 48.5243C189.143 48.5243 188.639 48.4372 188.245 48.3066C187.807 48.176 187.413 47.8495 187.194 47.4359C187.018 47.0876 186.865 46.5434 186.865 46.2386C186.865 45.9338 187.084 45.4549 187.369 45.1502C187.697 44.7584 188.289 44.4754 189.165 44.2794C189.888 44.1271 190.567 44.0182 190.655 44.0835C190.742 44.1271 190.721 44.3448 190.633 44.5624C190.523 44.7584 190.129 45.0196 189.757 45.1066C189.362 45.1937 188.924 45.4114 188.727 45.5855C188.552 45.7597 188.398 46.108 188.398 46.3474C188.398 46.5869 188.552 46.9352 188.727 47.1093C188.924 47.2835 189.319 47.4359 189.603 47.4359C189.91 47.4359 190.458 47.1964 190.808 46.8916C191.422 46.391 191.465 46.2386 191.465 44.9325C191.465 44.1488 191.334 43.1693 191.137 42.7557C190.962 42.3203 190.611 41.9502 190.326 41.8632C190.041 41.7979 189.384 41.7761 188.837 41.8196C187.982 41.8849 187.851 41.8414 187.851 41.4496C187.851 41.1448 188.048 40.9707 188.508 40.8618C188.88 40.7965 189.647 40.753 190.217 40.8183ZM200.447 40.7094C200.754 40.7094 201.258 40.8183 201.543 40.9707C201.849 41.123 202.222 41.5802 202.353 41.9938C202.506 42.4291 202.616 43.9965 202.638 48.3066H201.104V45.4767C201.104 43.9312 201.017 42.4509 200.885 42.2115C200.71 41.8632 200.447 41.7761 199.571 41.7761C198.782 41.7761 198.476 41.689 198.432 41.4713C198.41 41.2537 198.673 41.0577 199.155 40.9271C199.571 40.8183 200.162 40.7312 200.447 40.7094ZM106.905 40.9054C107.694 40.9054 107.781 40.9707 107.781 41.4496C107.781 41.9067 107.672 41.9938 107.19 41.9938C106.861 41.9938 106.467 41.8849 106.314 41.7326C106.16 41.5802 106.029 41.3407 106.029 41.1883C106.029 41.0142 106.358 40.9054 106.905 40.9054ZM141.737 40.9054H143.27V48.3066H141.737V40.9054ZM156.393 40.9054C156.918 40.9054 157.137 41.036 157.291 41.4496C157.422 41.7543 157.51 43.4087 157.51 48.3066H155.976V44.9325C155.976 43.0822 155.911 41.406 155.845 41.2319C155.735 40.9924 155.845 40.9054 156.393 40.9054ZM196.701 40.9054C197.227 40.9054 197.446 41.036 197.599 41.4496C197.731 41.7543 197.818 43.4087 197.818 48.3066H196.285V44.9325C196.285 43.0822 196.219 41.406 196.153 41.2319C196.044 40.9924 196.153 40.9054 196.701 40.9054ZM143.709 57.667H145.242V68.5511L143.818 68.4423L143.709 57.667ZM166.119 57.8847C166.207 57.8847 166.492 57.9935 166.733 58.1023C166.974 58.2329 167.171 58.5377 167.171 58.8207C167.171 59.0819 167.061 59.4302 166.908 59.5826C166.755 59.735 166.47 59.8438 166.251 59.8438C166.032 59.8438 165.703 59.6914 165.528 59.5173C165.309 59.3214 165.243 59.0166 165.331 58.7118C165.396 58.4289 165.572 58.1459 165.703 58.0588C165.856 57.9717 166.032 57.8847 166.119 57.8847ZM116.654 58.1023H118.209L119.918 62.8478C120.838 65.4383 121.67 67.7892 121.714 68.0722C121.802 68.5076 121.736 68.5511 120.29 68.5511L118.91 64.5022C118.165 62.2601 117.464 60.4098 117.377 60.3662C117.289 60.3227 116.895 61.237 116.522 62.4125C116.15 63.5662 115.799 64.6546 115.756 64.807C115.712 64.9811 115.975 65.0682 116.676 65.0682C117.201 65.0682 117.859 65.177 118.1 65.2859C118.341 65.4165 118.538 65.6559 118.538 65.8301C118.538 66.0913 118.209 66.1566 115.361 66.1566L114.901 67.2886C114.485 68.3117 114.353 68.4641 113.74 68.5076C113.368 68.5294 113.061 68.4858 113.061 68.3988C113.039 68.3117 113.85 65.9607 114.857 63.1744L116.654 58.1023ZM159.591 58.7989L159.701 62.739C159.766 64.9158 159.898 66.875 159.985 67.0709C160.073 67.2886 160.423 67.5062 160.752 67.5933C161.081 67.6586 161.519 67.6586 161.738 67.5933C161.979 67.5062 162.154 67.5716 162.22 67.7892C162.286 67.9634 162.329 68.2028 162.329 68.3335C162.329 68.4423 161.913 68.5947 161.409 68.66C160.905 68.747 160.204 68.6817 159.876 68.5511C159.547 68.4423 159.065 68.0069 158.824 67.6151C158.474 67.0273 158.386 66.5267 158.386 62.2383H157.729C157.291 62.2383 157.072 62.1295 157.072 61.9118C157.072 61.7159 157.378 61.4764 157.729 61.3676C158.342 61.1499 158.386 61.0628 158.342 60.1921C158.32 59.2996 158.364 59.2125 158.956 59.0166L159.591 58.7989ZM129.031 60.954C129.338 60.9322 129.82 61.0411 130.126 61.1934C130.433 61.3458 130.805 61.8247 130.937 62.2383C131.09 62.6519 131.2 64.2192 131.222 68.5294H129.688V65.6995C129.688 64.1539 129.601 62.6737 129.469 62.4342C129.294 62.0859 129.031 61.9989 128.155 61.9989C127.41 61.9989 127.059 61.9118 127.016 61.7159C126.994 61.5417 127.279 61.324 127.717 61.1934C128.155 61.0628 128.724 60.954 129.031 60.954ZM137.64 61.0411C138.21 61.0846 138.889 61.2805 139.174 61.4547C139.437 61.607 139.765 62.0206 139.919 62.3689C140.05 62.7172 140.225 64.241 140.291 65.7648C140.423 68.5294 140.423 68.5294 139.941 68.5511C139.656 68.5511 139.327 68.3988 139.174 68.2246C138.933 67.9199 138.801 67.9416 138.079 68.3117C137.619 68.5729 137.049 68.7688 136.808 68.7688C136.567 68.7688 136.063 68.66 135.669 68.5511C135.209 68.3988 134.836 68.0722 134.617 67.6586C134.442 67.3103 134.289 66.7661 134.289 66.4614C134.289 66.1784 134.508 65.6777 134.793 65.373C135.121 64.9811 135.713 64.7199 136.589 64.5022C137.312 64.3498 137.991 64.2628 138.079 64.3063C138.166 64.3498 138.144 64.5675 138.035 64.7852C137.947 65.0029 137.553 65.2423 137.158 65.3294C136.786 65.4165 136.326 65.6342 136.151 65.8083C135.975 66.0042 135.822 66.3308 135.822 66.5702C135.822 66.8097 135.975 67.158 136.151 67.3321C136.326 67.528 136.72 67.6586 137.027 67.6586C137.334 67.6586 137.881 67.4192 138.232 67.1144C138.845 66.6138 138.889 66.4614 138.889 65.1553C138.889 64.3934 138.736 63.4138 138.561 62.9784C138.385 62.5431 138.035 62.173 137.75 62.0859C137.465 62.0206 136.808 61.9989 136.26 62.0424C135.406 62.1077 135.274 62.0642 135.274 61.6941C135.274 61.3894 135.472 61.2152 135.932 61.1064C136.304 61.0193 137.071 60.9975 137.64 61.0411ZM173.502 60.9322C173.809 60.9322 174.29 60.9757 174.553 61.0628C174.904 61.1499 175.035 61.324 174.992 61.6506C174.948 62.0424 174.816 62.1077 174.05 62.0424C173.568 61.9989 172.954 62.0642 172.691 62.1948C172.407 62.3254 172.034 62.739 171.859 63.0873C171.684 63.4573 171.53 64.241 171.53 64.8288C171.53 65.4383 171.684 66.2219 171.859 66.5702C172.034 66.9403 172.385 67.3321 172.626 67.4409C172.867 67.5716 173.305 67.6586 173.611 67.6586C173.918 67.6586 174.356 67.5716 174.597 67.4409C174.97 67.2668 175.057 67.3103 175.167 67.7239C175.232 67.9852 175.189 68.3117 175.057 68.4205C174.926 68.5511 174.247 68.6382 173.546 68.6382C172.691 68.6382 172.078 68.5076 171.596 68.2028C171.202 67.9634 170.698 67.4409 170.457 67.0056C170.165 66.4977 170.019 65.8301 170.019 65.0029C169.997 64.3063 170.128 63.4356 170.303 63.0437C170.457 62.6519 170.829 62.1077 171.114 61.8465C171.421 61.5853 171.946 61.2587 172.297 61.1499C172.669 61.0411 173.195 60.954 173.502 60.9322ZM179.745 60.9322C179.986 60.9322 180.556 60.9975 181.016 61.0846C181.695 61.2152 181.848 61.324 181.783 61.6723C181.739 62.0424 181.542 62.1077 180.534 62.1077C179.658 62.1077 179.307 62.2165 179.11 62.4995C178.935 62.7825 178.935 62.9784 179.11 63.2614C179.241 63.4791 179.833 63.9145 180.424 64.2192C181.016 64.5458 181.717 65.0682 182.002 65.373C182.265 65.6777 182.484 66.2001 182.484 66.5267C182.484 66.8532 182.352 67.3539 182.155 67.6151C181.98 67.8763 181.542 68.2464 181.169 68.4205C180.819 68.6164 180.271 68.747 179.964 68.747C179.658 68.747 178.979 68.6382 178.431 68.4858C177.62 68.2681 177.445 68.1375 177.489 67.7675C177.533 67.4845 177.708 67.3539 177.993 67.3974C178.234 67.4409 178.847 67.528 179.351 67.6151C180.008 67.7457 180.337 67.7022 180.622 67.4409C180.819 67.2668 180.972 66.9185 180.972 66.6791C180.972 66.4396 180.797 66.0913 180.578 65.8954C180.359 65.6995 179.789 65.3512 179.307 65.1117C178.825 64.8723 178.234 64.4587 177.993 64.1757C177.752 63.9145 177.555 63.392 177.555 62.9784C177.555 62.5866 177.73 62.0424 177.971 61.7812C178.19 61.52 178.584 61.2152 178.847 61.1281C179.088 61.0193 179.504 60.9322 179.745 60.9322ZM125.285 61.1281C125.811 61.1281 126.03 61.2587 126.183 61.6723C126.315 61.9771 126.402 63.6533 126.402 68.5294H124.869V65.1553C124.869 63.305 124.803 61.6506 124.737 61.4547C124.628 61.2152 124.737 61.1281 125.285 61.1281ZM149.514 61.1281L150.237 63.4791C150.609 64.7634 150.96 65.9607 150.96 66.1348C150.982 66.3308 150.982 66.7879 150.96 67.1797C150.96 67.6151 150.828 67.8545 150.675 67.8328C150.522 67.811 149.886 66.3961 149.251 64.7199C148.616 63.0437 148.112 61.5635 148.09 61.4111C148.09 61.2587 148.375 61.1281 149.514 61.1281ZM161.453 61.1281C162.242 61.1281 162.329 61.1934 162.329 61.6723C162.329 62.0859 162.22 62.2165 161.891 62.2165C161.65 62.2165 161.256 62.1295 161.015 61.9989C160.774 61.89 160.577 61.6506 160.577 61.4547C160.577 61.237 160.818 61.1281 161.453 61.1281ZM165.396 61.1281H166.93V68.5294H165.396V61.1281Z" fill="#161C0E"/>
<path d="M50.9564 20.223C51.2765 20.1632 51.5966 20.0833 51.7166 20.0434C51.8367 20.0035 52.2368 20.0035 52.6169 20.0634C52.997 20.1233 53.6372 20.3627 54.0174 20.6221C54.3975 20.8616 54.9176 21.4602 55.1577 21.9591C55.4178 22.438 55.6179 23.1563 55.6179 23.5354C55.6179 23.9146 55.4378 24.593 55.2577 25.032C55.0577 25.471 54.6175 26.0297 54.2974 26.2891C53.9773 26.5286 53.3972 26.8479 53.017 26.9676C52.6369 27.0674 51.9567 27.1272 51.5166 27.0474C51.0364 26.9676 50.3962 26.6683 49.9361 26.2692C49.516 25.93 49.0158 25.3712 48.8558 25.032C48.6957 24.6928 48.5557 24.0343 48.5557 23.5354C48.5557 23.0366 48.6957 22.3781 48.8558 22.0389C49.0358 21.6996 49.4359 21.2008 49.796 20.9015C50.1362 20.5822 50.6563 20.2829 50.9564 20.223Z" fill="#38000E"/>
</svg>
